HIERARCHY
ROOT pelvis
{
  OFFSET 0 100 0
  CHANNELS 6 Xposition Yposition Zposition Zrotation Xrotation Yrotation
  JOINT pelvis_right_femur
  {
    OFFSET -10.78128 -3.44521 -0.5502486
    CHANNELS 3 Zrotation Xrotation Yrotation
    JOINT right_femur_tibia
    {
      OFFSET -0.8047443 -44.0398 -0.1307829
      CHANNELS 3 Zrotation Xrotation Yrotation
      JOINT right_tibia_foot
      {
        OFFSET 3.006224 -47.83518 -5
        CHANNELS 3 Zrotation Xrotation Yrotation
        End Site
        {
          OFFSET 0 -5 15
        }
      }
    }
  }
  JOINT pelvis_left_femur
  {
    OFFSET 10.78128 -3.44521 -0.5502486
    CHANNELS 3 Zrotation Xrotation Yrotation
    JOINT left_femur_tibia
    {
      OFFSET 0.8047443 -44.0398 -0.1307829
      CHANNELS 3 Zrotation Xrotation Yrotation
      JOINT left_tibia_foot
      {
        OFFSET -4.370144 -48.10324 -4.275266
        CHANNELS 3 Zrotation Xrotation Yrotation
        End Site
        {
          OFFSET 0 -5 15
        }
      }
    }
  }
  JOINT pelvis_spine1
  {
    OFFSET 0 6.468898 -3.129235
    CHANNELS 3 Zrotation Xrotation Yrotation
    JOINT spine1
    {
      OFFSET 0 23.15396 4.99043
      CHANNELS 3 Zrotation Xrotation Yrotation
      JOINT spine2
      {
        OFFSET 0 20.79997 -5.064912
        CHANNELS 3 Zrotation Xrotation Yrotation
        JOINT neck
        {
          OFFSET 0 14.38658 9.616178
          CHANNELS 3 Zrotation Xrotation Yrotation
          End Site
          {
            OFFSET 0 20 0
          }
        }
      }
      JOINT right_manubrium
      {
        OFFSET -5.722621 16.35077 3.967754
        CHANNELS 3 Zrotation Xrotation Yrotation
        JOINT right_clavicle
        {
          OFFSET -13.16364 1.694482 -4.693211
          CHANNELS 3 Zrotation Xrotation Yrotation
          JOINT right_humerus
          {
            OFFSET -28.5034 -0.3100689 -2.792744
            CHANNELS 3 Zrotation Xrotation Yrotation
            JOINT right_radius
            {
              OFFSET -25.15693 0.02248979 -1.271978
              CHANNELS 3 Zrotation Xrotation Yrotation
              End Site
              {
                OFFSET -15 0 0
              }
            }
          }
        }
      }
      JOINT left_manubrium
      {
        OFFSET 5.722621 16.35077 3.967754
        CHANNELS 3 Zrotation Xrotation Yrotation
        JOINT left_clavicle
        {
          OFFSET 13.16364 1.694482 -4.693211
          CHANNELS 3 Zrotation Xrotation Yrotation
          JOINT left_humerus
          {
            OFFSET 29.39168 -1.063119 -2.237045
            CHANNELS 3 Zrotation Xrotation Yrotation
            JOINT left_radius
            {
              OFFSET 24.59957 -0.9528479 0.9047498
              CHANNELS 3 Zrotation Xrotation Yrotation
              End Site
              {
                OFFSET 15 -0 -0
              }
            }
          }
        }
      }
    }
  }
}
MOTION
Frames: 7
Frame Time: 0.0416666666667
0 103.5113 0 0.8573395 -1.23313 0.2421534 3.001179 -16.10227 7.85091 -0 39.32824 -0 -5.590538 -14.08843 -3.023183 -7.161972 6.353812 -22.23731 -0 4.816931 -0 6.525665 -18.28676 25.29586 -1.232903 -1.356662 4.653056 3.081823 7.285238 -8.411784 1.049924 21.09031 7.254483 2.242154 -27.33767 9.685731 4.925587 -19.58739 11.33006 88.28313 36.49563 -22.85618 -0 0 15.45689 -6.719875 10.47112 5.635468 3.418441 -18.81615 -1.196836 -97.71661 38.56823 28.56895 0 0 -25.71037 -7.870369 11.92203 27.3322
0.4177322 103.7418 1.252664 0.8799477 -1.22321 0.4820669 3.164799 -17.28596 8.332992 -0 41.26113 -0 -5.534676 -13.86219 -3.274134 -7.361286 7.764664 -22.83501 -0 6.507996 -0 6.638988 -18.40291 25.43969 -1.137693 -1.523625 4.588466 3.229771 7.353085 -8.634635 0.9800451 20.9981 7.279619 2.260908 -27.85235 9.719976 4.871484 -19.81635 11.3971 88.85684 36.59663 -23.64138 -0 0 15.331 -5.978419 10.20997 5.267123 3.440696 -19.13858 -1.219452 -98.06715 38.70796 29.06577 0 0 -26.28662 -7.733054 12.36968 27.23629
0.7563172 103.8634 2.800581 0.7652471 -1.127817 0.749339 3.363085 -20.01291 7.618214 -0 38.76441 -0 -5.692981 -12.61707 -3.508704 -7.04813 10.12447 -22.1297 -0 6.664055 -0 6.161796 -19.11214 24.43048 -1.33803 -1.310587 4.595969 2.990266 7.444248 -8.308566 1.015878 21.14523 7.323647 2.439828 -26.91503 9.543452 5.03901 -19.32032 11.36926 87.97935 36.57996 -22.38748 -0 0 15.1306 -7.465993 10.6283 5.903806 3.646803 -18.9791 -1.32138 -96.66948 37.33721 27.27788 0 0 -25.14786 -6.608899 12.28711 25.40685
1.034592 103.8404 4.548944 0.648121 -0.9535164 1.017387 3.558828 -22.09065 7.023315 -0 35.93757 -0 -5.93796 -11.98643 -3.605357 -6.762992 11.71804 -21.58846 -0 6.38484 -0 5.878292 -19.65816 23.69212 -1.376542 -1.298229 4.526198 2.977209 7.504531 -8.315217 1.00113 21.16683 7.358797 2.517883 -26.77022 9.499591 5.072812 -19.15679 11.3772 88.00512 36.59824 -22.40381 -0 0 14.85397 -7.693666 10.67424 5.945364 3.759976 -19.11492 -1.387982 -96.13649 36.87919 26.57314 0 0 -25.1307 -6.061257 12.45031 24.58604
1.240547 103.6105 6.621365 0.4962513 -0.7896023 1.2924 3.727817 -24.6057 6.136121 -0 32.13076 -0 -6.214565 -11.01151 -3.723656 -6.389049 13.64815 -20.71257 -0 6.006319 -0 5.377714 -20.3232 22.612 -1.448242 -1.243792 4.422385 2.935908 7.567623 -8.296118 0.9988513 21.21873 7.401852 2.615182 -26.46148 9.439284 5.120436 -18.85109 11.36611 87.98639 36.57773 -22.3493 -0 0 14.43257 -8.144008 10.78837 6.05615 3.917367 -19.25791 -1.482698 -95.28953 36.2407 25.41431 0 0 -25.0857 -5.343369 12.56174 23.48902
1.380883 103.1695 9.070039 0.3486488 -0.6917326 1.579305 3.815973 -26.95351 5.166548 -0 28.31631 -0 -6.445093 -9.888749 -3.846719 -6.032225 15.47681 -19.69845 -0 5.760441 -0 4.746959 -20.92366 21.42507 -1.48771 -1.226826 4.291231 2.945764 7.615668 -8.354784 0.9889211 21.2468 7.444245 2.686881 -26.31417 9.413202 5.139588 -18.59109 11.35671 88.18219 36.56148 -22.60106 -0 0 13.96058 -8.321498 10.82993 6.029928 4.056594 -19.46689 -1.569881 -94.58802 35.82424 24.42099 0 0 -25.32825 -4.764481 12.70606 22.63156
1.462955 102.5239 12.02193 0.2114982 -0.7401971 1.893009 3.771664 -29.17491 4.004271 -0 24.56686 -0 -6.56532 -8.314201 -4.023546 -5.694856 17.33635 -18.36715 -0 5.925094 -0 3.817689 -21.43981 19.95819 -1.529658 -1.204057 4.140741 2.95959 7.658245 -8.425563 0.9824903 21.27949 7.48814 2.755679 -26.15253 9.392075 5.154386 -18.29268 11.33971 88.4223 36.52797 -22.91324 -0 0 13.42493 -8.501359 10.87654 5.99007 4.20407 -19.69328 -1.663733 -93.82648 35.41019 23.32023 0 0 -25.64501 -4.177648 12.83065 21.76302
